<svg xmlns="http://www.w3.org/2000/svg" data-name="Layer 1" viewBox="0 0 48 48" x="0px" y="0px"><title>ui 41</title><path d="M3,8V40a5.006,5.006,0,0,0,5,5H34a.888.888,0,0,0,.2-.041c.265.022.53.041.8.041a10,10,0,0,0,4-19.159V16.55a4.958,4.958,0,0,0-1.3-3.362L29.928,4.635a5.029,5.029,0,0,0-1.436-1.067.852.852,0,0,0-.131-.075A4.98,4.98,0,0,0,26.23,3H8A5.006,5.006,0,0,0,3,8ZM43,35a8,8,0,1,1-8-8A8.009,8.009,0,0,1,43,35ZM5,8A3,3,0,0,1,8,5H26.23a2.981,2.981,0,0,1,.77.114V14a3,3,0,0,0,3,3h4a1,1,0,0,0,0-2H30a1,1,0,0,1-1-1V6.588l7.223,7.948A2.968,2.968,0,0,1,37,16.55V25.2A10,10,0,0,0,25,35H18a1,1,0,0,0,0,2h7a.934.934,0,0,0,.2-.04A10,10,0,0,0,29.025,43H8a3,3,0,0,1-3-3Z"></path><path d="M10.5,17.5h3a2,2,0,0,0,2-2v-3a2,2,0,0,0-2-2h-3a2,2,0,0,0-2,2v3A2,2,0,0,0,10.5,17.5Zm0-5h3v3h-3Z"></path><path d="M10.5,27.5h3a2,2,0,0,0,2-2v-3a2,2,0,0,0-2-2h-3a2,2,0,0,0-2,2v3A2,2,0,0,0,10.5,27.5Zm0-5h3v3h-3Z"></path><path d="M18,27h7a1,1,0,0,0,0-2H18a1,1,0,0,0,0,2Z"></path><path d="M18,23h5a1,1,0,0,0,0-2H18a1,1,0,0,0,0,2Z"></path><path d="M10.5,37.5h3a2,2,0,0,0,2-2v-3a2,2,0,0,0-2-2h-3a2,2,0,0,0-2,2v3A2,2,0,0,0,10.5,37.5Zm0-5h3v3h-3Z"></path><path d="M18,33h5a1,1,0,0,0,0-2H18a1,1,0,0,0,0,2Z"></path><path d="M18,17h7a1,1,0,0,0,0-2H18a1,1,0,0,0,0,2Z"></path><path d="M18,13h5a1,1,0,0,0,0-2H18a1,1,0,0,0,0,2Z"></path><path d="M31.707,34.293a1,1,0,0,0-1.414,1.414l3,3A1,1,0,0,0,34,39h.045a1,1,0,0,0,.723-.359l5-6a1,1,0,1,0-1.536-1.28l-4.3,5.159Z"></path></svg>