<svg xmlns="http://www.w3.org/2000/svg" data-name="Layer 1" viewBox="0 0 100 100" x="0px" y="0px"><title>13</title><path d="M10.21,60C3.28,66.92,2.08,76,7,84.39a2,2,0,0,0,3.13.41l8.39-8.3A5.66,5.66,0,0,1,23,81l-8.33,8.33a2,2,0,0,0,.45,3.17A19.33,19.33,0,0,0,24.53,95,20.26,20.26,0,0,0,38.88,88.7c6.29-6.26,7.94-14.7,4.49-22.33L53.53,56.21l9.93,9.92L50.73,78.86l2.83,2.83,5.51-5.51L75.5,92.62a12,12,0,0,0,17-17L76,59.21l5.1-5.1L78.3,51.28l-12,12-9.93-9.92,9.47-9.47a21.14,21.14,0,0,0,20.55-5.1c6.91-6.9,8.11-16,3.19-24.39a2,2,0,0,0-1.47-1,2,2,0,0,0-1.67.56L78,22.31a5.59,5.59,0,0,1-4.5-4.5l8.33-8.33a2,2,0,0,0-.45-3.17c-7.92-4.36-17-2.89-23.72,3.83-6.28,6.26-7.94,14.7-4.49,22.33l-8.89,8.89L27.92,24.94l2-2a2,2,0,0,0,0-2.83L17.17,7.42a2,2,0,0,0-2.83,0L7.27,14.49a2,2,0,0,0,0,2.83L20,30a2,2,0,0,0,2.83,0l2.27-2.27L41.51,44.19,30.77,54.93A21.11,21.11,0,0,0,10.21,60ZM89.65,78.48A8,8,0,0,1,78.33,89.79L61.89,73.35,73.21,62ZM21.41,25.8l-9.9-9.9,4.24-4.24,9.9,9.9ZM32.73,58.63,57.07,34.29a2,2,0,0,0,.35-2.36C54,25.57,55.19,18.31,60.54,13,65.24,8.27,71.35,6.74,77,8.7l-7,7a2.21,2.21,0,0,0-.58,1.59,9.58,9.58,0,0,0,9.27,9.14,1.89,1.89,0,0,0,1.46-.58l7.11-7C89.84,24.85,88.53,31,83.55,36h0C78.44,41.11,71,41.57,66,39.75a2,2,0,0,0-2.09.47L39.52,64.56a2,2,0,0,0-.35,2.37c3.43,6.35,2.23,13.61-3.12,18.95-4.7,4.71-10.81,6.24-16.46,4.28l7-7a2,2,0,0,0,.58-1.5v-.1a9.65,9.65,0,0,0-9.3-9.17,2,2,0,0,0-1.47.58l-7.1,7C6.73,74,8,67.82,13,62.85c5.11-5.13,12.53-5.58,17.6-3.75A2,2,0,0,0,32.73,58.63Z"></path></svg>