<svg xmlns="http://www.w3.org/2000/svg" data-name="Layer 1" viewBox="0 0 128 128" x="0px" y="0px"><title>miscellaneous 283_expandline</title><path d="M65.8042,50.85059a6.7202,6.7202,0,0,0-4.45947-2.71143L54,47.077V45.7l8-3.64343V39.55444a15.81317,15.81317,0,0,1,.12341-1.95L54,41.30414V35.76508l10.59369-4.82483a18.85941,18.85941,0,0,1,6.16553-5.75452,6.03,6.03,0,0,0-3.999.37189L53.84277,31.44086a14.17114,14.17114,0,0,0-7.12238-10.5072,13.96991,13.96991,0,0,1-4.576,2.43951A10.24643,10.24643,0,0,1,50,33.64453v12.854l-13.31006-1.9248.12891-1.918a2.00009,2.00009,0,0,0-3.99121-.26758l-.25293,3.76611a2.00051,2.00051,0,0,0,1.70947,2.11328l26.477,3.82861a2.54955,2.54955,0,0,1,2.18507,2.95606,2.4703,2.4703,0,0,1-2.916,1.90967c-4.48975-.748-28.147-4.21631-31.7373-4.78711a2.65089,2.65089,0,0,1-2.28809-2.69971c.00293-.04346-.00452-15.8399-.00452-15.8399a10.24549,10.24549,0,0,1,7.85535-10.262,13.971,13.971,0,0,1-4.576-2.43945,14.23944,14.23944,0,0,0-7.24939,11.76508C22.0152,32.7981,22,70.792,22,70.792a6.28234,6.28234,0,0,0,1.99951,4.61371v46.16656c0,3.54443,2.57178,6.42773,5.7334,6.42773h2.69141a5.353,5.353,0,0,0,3.66309-1.49225A5.32578,5.32578,0,0,0,39.73291,128h2.69141c3.0332,0,5.54443-2.65479,5.72363-6.04639l3.05542-45.92139A6.25492,6.25492,0,0,0,54,70.792V60.05621c1.99646.30579,3.8313.5943,5.373.851a6.59644,6.59644,0,0,0,7.52442-5.22559A6.29677,6.29677,0,0,0,65.8042,50.85059ZM34.15381,121.73535c-.063,1.249-.83887,2.26465-1.72949,2.26465H29.73291c-.93945,0-1.7334-1.11182-1.7334-2.42773V77h9.13062S34.1543,121.7251,34.15381,121.73535Zm10,0c-.063,1.249-.83887,2.26465-1.72949,2.26465H39.73291c-.73962,0-1.38251-.69287-1.62531-1.62817C38.123,122.23309,41.139,77,41.139,77h5.99115S44.1543,121.7251,44.15381,121.73535ZM50,70.792A2.11413,2.11413,0,0,1,48,73H28a2.11413,2.11413,0,0,1-2-2.208V55.63763a6.93853,6.93853,0,0,0,1.665.48737c3.61426.57471,19.61578,2.92133,22.335,3.32715Z"></path><path d="M38,20A10,10,0,1,0,28,10,10.01114,10.01114,0,0,0,38,20ZM38,4a6,6,0,1,1-6,6A6.00656,6.00656,0,0,1,38,4Z"></path><path d="M86,26A10,10,0,1,0,76,16,10.01114,10.01114,0,0,0,86,26Zm0-16a6,6,0,1,1-6,6A6.00656,6.00656,0,0,1,86,10Z"></path><path d="M66,38.92969v6.74646a10.38127,10.38127,0,0,1,4,4.46216V38.92969c0-5.01257,4.63586-8.8255,11.39191-9.725a13.99683,13.99683,0,0,1-4.89661-2.95514C70.12659,28.37781,66,33.0625,66,38.92969Z"></path><path d="M95.5047,26.24957a13.99683,13.99683,0,0,1-4.89661,2.95514c6.756.89948,11.39191,4.7124,11.39191,9.725v38.1001C102,77.96191,100.709,79,98.85693,79H98V66.00049a2,2,0,0,0-4,0v55.94238c0,1.11475-.67676,2.05664-1.478,2.05664H88V98a2,2,0,0,0-4,0v25.99951H79.478c-.80127,0-1.478-.94189-1.478-2.05664V66.00049a2,2,0,0,0-4,0V79h-.85693C71.291,79,70,77.96191,70,77.02979V58.982a10.48261,10.48261,0,0,1-4,4.43793V77.02979C66,80.32178,69.20459,83,73.14307,83H74v38.94287c0,3.33984,2.45752,6.05664,5.478,6.05664H92.522c3.02051,0,5.478-2.7168,5.478-6.05664V83h.85693C102.79541,83,106,80.32178,106,77.02979V38.92969C106,33.0625,101.87341,28.37781,95.5047,26.24957Z"></path></svg>