<?xml version="1.0" encoding="utf-8"?>
<!-- Generator: Adobe Illustrator 26.3.1, SVG Export Plug-In . SVG Version: 6.00 Build 0)  -->
<svg version="1.1" id="Layer_1" xmlns="http://www.w3.org/2000/svg" xmlns:xlink="http://www.w3.org/1999/xlink" x="0px" y="0px"
	 viewBox="0 0 138.1 138.1" style="enable-background:new 0 0 138.1 138.1;" xml:space="preserve">
<style type="text/css">
	.st0{fill:none;}
	.st1{fill:none;stroke:#000000;stroke-width:3;stroke-miterlimit:10;}
	.st2{fill:none;stroke:#000000;stroke-width:3;stroke-miterlimit:10;stroke-dasharray:11.0296,11.0296;}
	.st3{stroke:#000000;stroke-miterlimit:10;}
</style>
<g>
	<path class="st0" d="M88.5,70.6c-0.2-0.2-0.3-0.4-0.3-0.7L88,63.6L82.2,66c-0.2,0.1-0.5,0.1-0.7,0l-0.8-0.3
		c-2.4-0.8-4.8-1.3-7.3-1.3c-5.8,0-11.3,2.3-15.4,6.4c-4.1,4.1-6.4,9.6-6.4,15.4c0,5.8,2.3,11.3,6.4,15.4c4.1,4.1,9.6,6.4,15.4,6.4
		c5.8,0,11.3-2.3,15.4-6.4c8.3-8.3,8.4-21.9,0.4-30.4L88.5,70.6z"/>
	<path class="st0" d="M94.7,67.4l-0.5-13.4l-12.2,5.2c-0.2,0.1-0.4,0.1-0.7,0C78.7,58.4,76,58,73.3,58c-7.6,0-14.7,2.9-20,8.3
		c-5.3,5.3-8.3,12.4-8.3,20c0,7.6,2.9,14.7,8.3,20c5.3,5.3,12.4,8.3,20,8.3c7.6,0,14.7-2.9,20-8.3c10.1-10.1,10.8-27.3,1.5-38.3
		C94.8,67.8,94.7,67.6,94.7,67.4z M90.2,103.1c-4.5,4.5-10.5,7-16.8,7c-6.4,0-12.3-2.5-16.8-7c-4.5-4.5-7-10.5-7-16.8
		c0-6.4,2.5-12.3,7-16.8C61,65,67,62.5,73.3,62.5c2.7,0,5.4,0.5,8,1.4l0.5,0.2l6.8-2.9c0.3-0.1,0.6-0.1,0.9,0.1S90,61.7,90,62
		l0.3,7.5l0.3,0.3C99.4,79.1,99.2,94,90.2,103.1z"/>
	<path class="st0" d="M73.3,41.7C49.4,41.7,30,61.1,30,85s19.5,43.4,43.4,43.4c23.9,0,43.4-19.5,43.4-43.4
		C116.7,61.1,97.3,41.7,73.3,41.7z M94.8,107.7c-5.7,5.7-13.3,8.9-21.4,8.9s-15.7-3.1-21.4-8.9c-5.7-5.7-8.9-13.3-8.9-21.4
		c0-8.1,3.1-15.7,8.9-21.4c5.7-5.7,13.3-8.8,21.4-8.8c2.8,0,5.5,0.4,8.2,1.1l13.3-5.6c0.3-0.1,0.6-0.1,0.9,0.1
		c0.3,0.2,0.4,0.5,0.5,0.8l0.5,14.5C106.4,78.7,105.6,96.9,94.8,107.7z"/>
	<path d="M96.1,52.4c0-0.3-0.2-0.6-0.5-0.8c-0.3-0.2-0.6-0.2-0.9-0.1l-13.3,5.6c-2.7-0.7-5.4-1.1-8.2-1.1c-8.1,0-15.7,3.1-21.4,8.8
		c-5.7,5.7-8.9,13.3-8.9,21.4c0,8.1,3.1,15.7,8.9,21.4c5.7,5.7,13.3,8.9,21.4,8.9s15.7-3.1,21.4-8.9c10.8-10.8,11.6-29,1.9-40.7
		L96.1,52.4z M93.4,106.3c-5.3,5.3-12.4,8.3-20,8.3s-14.7-2.9-20-8.3c-5.3-5.3-8.3-12.4-8.3-20c0-7.6,2.9-14.7,8.3-20
		c5.3-5.3,12.4-8.3,20-8.3c2.7,0,5.4,0.4,7.9,1.1c0.2,0.1,0.5,0,0.7,0l12.2-5.2l0.5,13.4c0,0.2,0.1,0.4,0.2,0.6
		C104.2,78.9,103.5,96.1,93.4,106.3z"/>
	<path d="M73.3,39.7C48.3,39.7,28,60,28,85c0,25,20.4,45.4,45.4,45.4c25,0,45.4-20.4,45.4-45.4S98.4,39.7,73.3,39.7z M73.3,128.4
		C49.4,128.4,30,108.9,30,85c0-23.9,19.5-43.4,43.4-43.4c23.9,0,43.4,19.5,43.4,43.4S97.3,128.4,73.3,128.4z"/>
	<path d="M90.3,69.5L90,62c0-0.3-0.2-0.6-0.5-0.8c-0.3-0.2-0.6-0.2-0.9-0.1L81.8,64l-0.5-0.2c-2.6-0.9-5.3-1.4-8-1.4
		C67,62.5,61,65,56.5,69.4c-4.5,4.5-7,10.5-7,16.8c0,6.4,2.5,12.3,7,16.8c4.5,4.5,10.5,7,16.8,7c6.4,0,12.3-2.5,16.8-7
		c9-9,9.2-23.9,0.4-33.2L90.3,69.5z M88.8,101.7c-4.1,4.1-9.6,6.4-15.4,6.4c-5.8,0-11.3-2.3-15.4-6.4c-4.1-4.1-6.4-9.6-6.4-15.4
		c0-5.8,2.3-11.3,6.4-15.4c4.1-4.1,9.6-6.4,15.4-6.4c2.5,0,5,0.4,7.3,1.3l0.8,0.3c0.2,0.1,0.5,0.1,0.7,0l5.8-2.5l0.2,6.4
		c0,0.2,0.1,0.5,0.3,0.7l0.6,0.6C97.2,79.7,97,93.4,88.8,101.7z"/>
</g>
<g>
	<g>
		<path class="st1" d="M11.2,84.8c0-2,0.1-4,0.3-6"/>
		<path class="st2" d="M13.5,68C20.8,42.1,44.7,23,73,23c8.6,0,16.7,1.7,24.2,4.9"/>
		<path class="st1" d="M102.1,30.3c1.8,0.9,3.5,2,5.1,3.1"/>
	</g>
</g>
<polyline class="st1" points="104.3,37.8 107.4,33.2 110.3,28.8 "/>
<polygon class="st3" points="15.3,83.4 11,90.2 7.3,83.1 "/>
</svg>
