<svg fill="#0000ff" xmlns="http://www.w3.org/2000/svg" viewBox="0 0 140 37">
<path d="M84.372 14.13c-.987-5.704-6.178-7.774-10.895-7.774-6.445 0-11.123 3.863-11.123 9.182.05 3.6 2.544 6.06 7.621 7.522l.405.133c5.28 1.69 7.26 2.327 7.26 4.505a2.524 2.524 0 01-.84 1.926 4.445 4.445 0 01-3.046 1.101c-.4 0-3.907-.094-4.218-3.408h-7.73v.035c.494 6.396 6.317 9.26 11.854 9.26 3.56 0 6.84-1.165 8.993-3.195a8.48 8.48 0 002.732-6.495c-.055-6.208-5.517-7.586-10.333-8.806-3.427-.914-4.904-1.901-4.939-3.3 0-1.239 1.043-2.572 3.334-2.572 2.124 0 2.988.894 3.295 1.886h7.63zM0 35.842V14.516l7.858-7.503h11.67l7.859 7.503v21.326h-7.858V14.516H7.858v21.326H0zM108.272 35.837h-9.325l-7.73-7.497V14.13H86.55V7.028h4.668V0h7.73v7.028h9.324v7.102h-9.325v14.21h9.325v7.497zM110.07 21.49c0-8.733 5.848-14.931 13.582-14.931a10.867 10.867 0 018.5 3.778l.118-.064V7.028H140v28.81h-7.379V32.41l-.118-.055c-2.006 2.598-4.9 4.01-8.678 4.01-7.907 0-13.755-5.96-13.755-14.876zm22.551.059c0-4.663-3.185-8.085-7.319-8.085s-7.379 3.13-7.379 8.085c0 4.608 3.013 7.853 7.379 7.853 3.956 0 7.319-3.127 7.319-7.853zM52.002 17.815H38.435a6.87 6.87 0 016.816-5.295c3.023 0 6.055 1.749 6.751 5.295zm7.76 5.606c.241-1.375.283-2.777.123-4.164-.909-7.902-7.325-12.896-14.763-12.896-8.47 0-14.846 6.505-14.846 15.08 0 8.573 6.337 15.053 15.069 15.053 6.292 0 11.972-3.368 13.928-9.172h-8.08c-1.225 1.818-3.389 2.806-5.814 2.806-4.163 0-6.983-2.776-7.408-6.698l21.79-.01z"></path>
</svg>