<svg xmlns="http://www.w3.org/2000/svg" data-name="Layer 1" viewBox="0 0 100 100" x="0px" y="0px"><title>Artboard 73</title><path d="M76.21,32.86,57.39,20.31a13.35,13.35,0,0,0-4.63-2,13,13,0,0,0-10,1.89l-19,12.67A13,13,0,0,0,18,43.68V70A12,12,0,0,0,30,82H41a4,4,0,0,0,0-8H30a4,4,0,0,1-4-4V43.68a5,5,0,0,1,2.23-4.16l19-12.67a5,5,0,0,1,5.55,0l19,12.67A5,5,0,0,1,74,43.68V48a4,4,0,0,0,8,0V43.68A13,13,0,0,0,76.21,32.86Z"></path><path d="M54,78a4,4,0,0,0,8,0c0-6.4-2.7-9.78-4.88-12.5C55.24,63.15,54,61.6,54,58a4,4,0,0,0-8,0c0,6.4,2.7,9.78,4.88,12.5C52.76,72.85,54,74.4,54,78Z"></path><path d="M75,82a4,4,0,0,0,4-4c0-6.4-2.7-9.78-4.88-12.5C72.24,63.15,71,61.6,71,58a4,4,0,0,0-8,0c0,6.4,2.7,9.78,4.88,12.5C69.76,72.85,71,74.4,71,78A4,4,0,0,0,75,82Z"></path></svg>